<svg version="1.2" xmlns="http://www.w3.org/2000/svg" viewBox="0 0 90 32" width="90" height="32">
	<style>
		.s0 { fill: #0a6dbe } 
		.s1 { fill: #3c4043 } 
	</style>
	<path class="s0" d="m12 11.79c-0.43 0.69-0.82 1.33-1.31 2.13 0.82-1.32 3.12-4.94 4.07-6.5-0.56 3.65 1.16 4.1 1.54 4.1v-9.11h-5.61c0.11 3.62 2.75 2.87 2.75 2.87l-2.75 4.29q0.8 0.89 1.31 2.22z"/>
	<path class="s0" d="m11.59 20.38q0.46-0.88 0.72-1.91 0.34-1.41 0.3-3.02h-1.81c0.02 1.1-0.17 2.17-0.6 3.01-0.44 0.83-1.06 1.37-1.73 1.5-0.67 0.13-1.35-0.16-1.89-0.8-0.55-0.64-0.93-1.6-1.06-2.67-0.13-1.07-0.01-2.19 0.34-3.13 0.35-0.93 0.9-1.62 1.55-1.92 0.65-0.3 1.35-0.2 1.95 0.3l1.33-2.17q-0.24-0.27-0.5-0.48c-1.02-0.83-2.19-1.01-3.28-0.51-1.09 0.51-2.03 1.67-2.62 3.24-0.59 1.57-0.79 3.45-0.57 5.26 0.23 1.8 0.86 3.41 1.78 4.49 0.92 1.08 2.06 1.55 3.19 1.33 1.13-0.21 2.16-1.11 2.9-2.52z"/>
	<path class="s0" d="m9.36 11.74c0.58 0.47 1.09 1.2 1.33 2.18 0.49-0.8 0.88-1.44 1.31-2.13q-0.51-1.33-1.31-2.22z"/>
	<path class="s0" d="m16.3 15.45q0.01 1.54-0.19 3.04c-0.22 1.56-0.6 3.07-1.15 4.41-0.89 2.19-2.16 3.91-3.66 4.93-1.49 1.01-3.14 1.28-4.73 0.77-1.59-0.51-3.05-1.78-4.19-3.64-1.15-1.86-1.92-4.24-2.23-6.82-0.31-2.58-0.14-5.25 0.5-7.67 0.63-2.42 1.69-4.48 3.05-5.92 1.24-1.31 3.03-2.04 4.57-2.14 0.24-0.01 0.44 0.32 0.43 0.71l-0.02 2.19c0 0.4-0.2 0.71-0.44 0.73-1.11 0.1-2.45 0.63-3.32 1.54-0.99 1.05-1.76 2.54-2.22 4.3-0.46 1.76-0.58 3.7-0.36 5.57 0.22 1.88 0.79 3.6 1.62 4.96 0.83 1.35 1.89 2.27 3.04 2.64 1.16 0.37 2.35 0.18 3.44-0.56 1.09-0.74 2.01-1.99 2.66-3.58q0.46-1.13 0.71-2.43 0.3-1.49 0.29-3.03z"/>
	<path class="s0" d="m12.61 15.45q0.04 1.61-0.3 3.02l1.5 0.01q0.3-1.49 0.29-3.03z"/>
	<path class="s1" d="m27.17 28.85h-2.6c-0.14-0.68-0.24-1.09-0.24-3.24v-4.15c0-2.45-0.51-3.36-1.67-3.36h-0.89v10.75h-2.55v-26.4h3.86c2.65 0 3.79 2 3.79 6.07v2.08c0 2.71-0.54 4.45-1.68 5.32v0.07c1.28 0.87 1.7 2.83 1.7 5.58v4.08c0 1.28 0.02 2.22 0.28 3.2zm-4.16-22.63h-1.24v8.11h1c0.96 0 1.54-0.68 1.54-2.79v-2.6c0-1.89-0.4-2.72-1.3-2.72z"/>
	<path class="s1" d="m30.74 28.85v-8.75l-3.23-17.65h2.67l1.93 12.03h0.05l1.93-12.03h2.44l-3.23 17.65v8.75z"/>
	<path class="s1" d="m41.33 2.45c2.56 0 3.81 2.3 3.81 6.53v3.43c0 4.22-1.25 6.52-3.81 6.52h-1.21v9.92h-2.56v-26.4zm0 3.77h-1.2v8.94h1.2c0.82 0 1.26-0.6 1.26-2.49v-3.96c0-1.88-0.44-2.49-1.26-2.49z"/>
	<path class="s1" d="m45.59 6.22v-3.77h7.9v3.77h-2.67v22.63h-2.56v-22.63z"/>
	<path class="s1" d="m54.41 22.52v-13.73c0-4.23 1.37-6.64 3.88-6.64 2.51 0 3.88 2.41 3.88 6.64v13.73c0 4.22-1.37 6.64-3.88 6.64-2.51 0-3.88-2.42-3.88-6.64zm2.56-14v14.26c0 1.89 0.51 2.6 1.32 2.6 0.82 0 1.33-0.71 1.33-2.6v-14.26c0-1.88-0.51-2.6-1.33-2.6-0.81 0-1.32 0.72-1.32 2.6z"/>
	<path class="s0" d="m67.7 2.45c2.65 0 3.79 2 3.79 6.07v0.95c0 2.71-0.52 4.41-1.65 5.28v0.07c1.37 0.87 1.9 2.83 1.9 5.62v2.15c0 4.08-1.32 6.26-3.88 6.26h-4.02v-26.4zm-0.17 14.52h-1.14v8.11h1.47c0.86 0 1.32-0.64 1.32-2.6v-2.3c0-2.45-0.48-3.21-1.65-3.21zm0.1-10.75h-1.24v6.98h1c0.96 0 1.54-0.68 1.54-2.79v-1.47c0-1.89-0.4-2.72-1.3-2.72z"/>
	<path class="s1" d="m73.07 22.52v-13.73c0-4.23 1.38-6.64 3.89-6.64 2.51 0 3.88 2.41 3.88 6.64v13.73c0 4.22-1.37 6.64-3.88 6.64-2.51 0-3.89-2.42-3.89-6.64zm2.56-14v14.26c0 1.89 0.51 2.6 1.33 2.6 0.81 0 1.32-0.71 1.32-2.6v-14.26c0-1.88-0.51-2.6-1.32-2.6-0.82 0-1.33 0.72-1.33 2.6z"/>
	<path class="s1" d="m81.76 6.22v-3.77h7.9v3.77h-2.67v22.63h-2.56v-22.63z"/>
	<path class="s0" d="m66.37 0.36c0-0.2 0.1-0.36 0.22-0.36h0.44c0.12 0 0.22 0.16 0.22 0.36v5.26c0 0.2-0.1 0.36-0.22 0.36h-0.44c-0.12 0-0.22-0.16-0.22-0.36z"/>
	<path class="s0" d="m68.07 0.36c0-0.2 0.1-0.36 0.22-0.36h0.44c0.12 0 0.22 0.16 0.22 0.36v5.26c0 0.2-0.1 0.36-0.22 0.36h-0.44c-0.12 0-0.22-0.16-0.22-0.36z"/>
	<path class="s0" d="m66.18 26.38c0-0.2 0.1-0.36 0.22-0.36h0.44c0.13 0 0.22 0.16 0.22 0.36v5.26c0 0.2-0.09 0.36-0.22 0.36h-0.44c-0.12 0-0.22-0.16-0.22-0.36z"/>
	<path class="s0" d="m67.88 26.38c0-0.2 0.1-0.36 0.22-0.36h0.44c0.13 0 0.22 0.16 0.22 0.36v5.26c0 0.2-0.09 0.36-0.22 0.36h-0.44c-0.12 0-0.22-0.16-0.22-0.36z"/>
</svg>