<svg width="128" height="128" viewBox="0 0 128 128" fill="none" xmlns="http://www.w3.org/2000/svg">
<path d="M94.2079 45.4251C90.8457 48.7658 87.749 51.8565 83.9265 55.7262C90.372 49.3221 108.444 31.8162 115.889 24.2636C111.441 41.9046 124.97 44.1003 127.997 44.1003V0H83.9265C84.7546 17.5135 105.511 13.8854 105.511 13.8854L83.9265 34.6628C88.0827 37.4867 91.5854 41.1582 94.2079 45.4251Z" fill="#0A6DBE"/>
<path d="M90.9791 86.9992C93.4164 84.141 95.2905 81.035 96.617 77.7311C98.439 73.1932 99.228 68.282 99.0245 63.1268H84.7546C84.9636 68.4256 83.4878 73.6415 80.0466 77.6767C76.6058 81.7118 71.771 84.3026 66.5059 84.9331C61.2405 85.5635 55.9306 84.1873 51.6347 81.0786C47.3384 77.9699 44.371 73.3568 43.3233 68.1584C42.2756 62.9598 43.2245 57.5575 45.9816 53.0273C48.7383 48.4973 53.1005 45.172 58.1992 43.7137C63.2974 42.2555 68.7584 42.7716 73.4935 45.159L83.9265 34.6628C82.6631 33.8044 81.3394 33.0244 79.9617 32.3297C72.0007 28.316 62.8202 27.4485 54.2482 29.9C45.6763 32.3516 38.3428 37.9422 33.7078 45.5583C29.0732 53.1744 27.4774 62.2569 29.2388 70.9968C31.0001 79.7365 35.989 87.4921 43.2118 92.7185C50.435 97.945 59.3617 100.259 68.2141 99.1987C77.0661 98.1388 85.1942 93.7831 90.9791 86.9992Z" fill="#0A6DBE"/>
<path d="M73.4935 45.159C78.069 47.4658 82.0131 50.9859 83.9265 55.7262C87.749 51.8565 90.8457 48.7658 94.2079 45.4251C91.5854 41.1582 88.0827 37.4867 83.9265 34.6628L73.4935 45.159Z" fill="#0A6DBE"/>
<path d="M127.997 63.1268C128.047 68.073 127.524 73.0132 126.454 77.8291C124.772 85.4025 121.739 92.6685 117.463 99.1668C110.469 109.797 100.465 118.102 88.7286 123.019C76.9921 127.936 64.0561 129.243 51.5733 126.772C39.0905 124.302 27.6275 118.166 18.6487 109.149C9.66993 100.132 3.58302 88.6432 1.16555 76.1499C-1.25191 63.6567 0.10982 50.7265 5.0768 39.0109C10.0438 27.2954 18.3905 17.3265 29.0507 10.3778C38.7648 4.04571 52.8707 0.483495 64.9257 0.0403886C66.835 -0.0297904 68.3611 1.54865 68.3335 3.45901L68.1802 14.0545C68.1525 15.9649 66.581 17.4833 64.6731 17.5841C55.9487 18.0449 45.4283 20.6101 38.6153 25.0511C30.8727 30.098 24.8103 37.3386 21.2027 45.8478C17.5951 54.3569 16.6061 63.7484 18.3619 72.8224C20.1178 81.8964 24.5388 90.241 31.0602 96.7902C37.5816 103.339 45.9074 107.796 54.9738 109.59C64.0403 111.385 73.4359 110.435 81.9603 106.864C90.4847 103.293 97.751 97.261 102.831 89.5399C105.207 85.9287 107.102 81.9393 108.437 77.7699C109.957 73.0247 110.75 68.0462 110.7 63.1268H127.997Z" fill="#0A6DBE"/>
<path d="M99.0245 63.1268C99.228 68.282 98.439 73.1932 96.617 77.7311L108.437 77.7699C109.957 73.0247 110.75 68.0462 110.7 63.1268H99.0245Z" fill="#0A6DBE"/>
</svg>
