<svg version="1.2" xmlns="http://www.w3.org/2000/svg" viewBox="0 0 30 30" width="30" height="30">
	<style>
		.s0 { fill: #51bb41 } 
		.s1 { fill: #cc5a25 } 
	</style>
	<path class="s0" d="m0 18.21c0-1.24 0.38-2.47 1.11-3.61 0.74-1.15 1.82-2.19 3.18-3.06 1.36-0.88 2.97-1.58 4.74-2.05 1.78-0.47 3.68-0.72 5.6-0.72 1.93 0 3.83 0.25 5.6 0.72 1.78 0.47 3.39 1.17 4.75 2.05 1.36 0.87 2.44 1.91 3.17 3.06 0.74 1.14 1.12 2.37 1.12 3.61h-5.53q0-1.17-0.69-2.25-0.7-1.07-1.98-1.9-1.28-0.83-2.95-1.28c-1.11-0.29-2.29-0.44-3.49-0.44-1.19 0-2.38 0.15-3.48 0.44q-1.67 0.45-2.95 1.28-1.28 0.83-1.98 1.9-0.69 1.08-0.69 2.25z"/>
	<path class="s1" d="m29.27 20.13c0 2.51-1.54 4.91-4.29 6.68-2.74 1.77-6.46 2.76-10.35 2.76-3.88 0-7.6-0.99-10.34-2.76-2.75-1.77-4.29-4.17-4.29-6.68h5.53c0 1.56 0.96 3.05 2.67 4.15 1.7 1.11 4.02 1.72 6.43 1.72 2.42 0 4.73-0.61 6.44-1.72 1.71-1.1 2.67-2.59 2.67-4.15z"/>
	<path fill-rule="evenodd" class="s0" d="m14.57 8.1c-3.47 0-6.28-1.81-6.28-4.05 0-2.24 2.81-4.05 6.28-4.05 3.47 0 6.28 1.81 6.28 4.05 0 2.24-2.81 4.05-6.28 4.05z"/>
	<path fill-rule="evenodd" class="s0" d="m14.57 14.26c-1.39 0-2.51 0.75-2.51 1.69v6.34c0 0.93 1.12 1.69 2.51 1.69 1.39 0 2.51-0.76 2.51-1.69v-6.34c0-0.94-1.12-1.69-2.51-1.69z"/>
</svg>